<?xml version="1.0" encoding="UTF-8"?>
<!DOCTYPE svg PUBLIC "-//W3C//DTD SVG 1.1//EN" "http://www.w3.org/Graphics/SVG/1.1/DTD/svg11.dtd">
<!-- Creator: CorelDRAW -->
<svg xmlns="http://www.w3.org/2000/svg" xml:space="preserve" width="2000px" height="2000px" version="1.1" style="shape-rendering:geometricPrecision; text-rendering:geometricPrecision; image-rendering:optimizeQuality; fill-rule:evenodd; clip-rule:evenodd"
viewBox="0 0 2000 2000"
 xmlns:xlink="http://www.w3.org/1999/xlink"
 xmlns:xodm="http://www.corel.com/coreldraw/odm/2003">
 <defs>
  <style type="text/css">
   <![CDATA[
    .fil0 {fill:#000066}
    .fil1 {fill:white}
   ]]>
  </style>
 </defs>
 <g id="Camada_x0020_1">
  <metadata id="CorelCorpID_0Corel-Layer"/>
  <path class="fil0" d="M409.2 0l590.8 0 590.8 0c112.53,0 214.83,46.03 289,120.2 74.17,74.17 120.2,176.47 120.2,289l0 590.8 0 590.8c0,112.53 -46.03,214.83 -120.2,289 -74.17,74.17 -176.47,120.2 -289,120.2l-590.8 0 -590.8 0c-112.53,0 -214.83,-46.03 -289,-120.2 -74.17,-74.17 -120.2,-176.47 -120.2,-289l0 -590.8 0 -590.8c0,-112.53 46.03,-214.83 120.2,-289 74.17,-74.17 176.47,-120.2 289,-120.2z"/>
  <path class="fil1" d="M718.3 1134.55c71.85,0 130.1,-58.25 130.1,-130.1 0,-71.86 -58.25,-130.11 -130.1,-130.11l-403.64 0c-71.85,0 -130.1,58.25 -130.1,130.11l0 275.65c0,71.86 58.25,130.11 130.1,130.11 71.85,0 130.1,-58.25 130.1,-130.11l0 -145.55 273.54 0zm621.09 -465.94l-155.97 389.71c-7,15.97 -10.88,33.61 -10.88,52.16 0,71.85 58.25,130.1 130.1,130.1 55.78,0 102.69,-34.69 121.69,-83.96l34.73 -86.76 106.42 266.11c19.54,46.41 66.1,79.18 119.76,79.18 93.03,0 154.58,-94.3 120.86,-178.35l-225.85 -564.82c-19,-48.31 -66.07,-82.51 -121.12,-82.51 -50.76,0 -100.66,31.43 -119.74,79.14zm-314.19 3.7l-225.27 563.39c-34.63,85.69 28.03,179.29 120.49,179.29 53.5,0 100.62,-32.99 119.76,-79.19l2.12 -5.3 223.93 -560.03c6.61,-15.48 10.19,-33.01 10.19,-50.56 0,-71.86 -58.25,-130.11 -130.1,-130.11 -55.05,0 -102.12,34.2 -121.12,82.51zm-710.54 172.74l520.42 0c71.85,0 130.1,-58.25 130.1,-130.1 0,-71.85 -58.25,-130.1 -130.1,-130.1l-520.42 0c-71.85,0 -130.1,58.25 -130.1,130.1 0,71.85 58.25,130.1 130.1,130.1z"/>
 </g>
</svg>
